<svg version="1" xmlns="http://www.w3.org/2000/svg" width="666.667" height="666.667" viewBox="0 0 500.000000 500.000000"><path d="M0 250v250h500V0H0v250zM274.5 93c27.6 3.2 52.8 12.5 72.8 26.7 8.5 6.1 27 23.8 26.5 25.3-.2.8-44 40.7-48.9 44.7-1.2 1-2.9-.1-9.5-6.6-20.6-19.9-45.2-28-72.9-24.1-8.9 1.3-22 5.8-29.2 10.1-13.6 8.1-25.5 22.7-31.2 38.5-4.2 11.5-5.4 21.1-4.9 37.1.5 11.3 1 15.3 3.3 22.3 8.3 26.2 26.2 43.7 52.1 51.2 11.4 3.3 34.3 3.3 45.7 0 14.6-4.2 24.9-10.4 37.2-22.3l8-7.8 25 22.6c13.8 12.4 25.1 22.9 25.3 23.3.6 1.5-14.5 16.4-23.7 23.3-20.7 15.6-45.6 25.3-74.4 28.8-14.7 1.8-47.5.7-60.2-2.1-61.4-13.1-103.6-53.7-116.7-112.1-2-9.2-2.3-12.9-2.3-32.4.1-18.9.4-23.4 2.3-32.2 6.2-28.6 18.2-50.5 38.6-70.8 24-24 53.3-38.2 88.6-43 11.7-1.6 36.5-1.8 48.5-.5z"/></svg>