<svg id="Слой_3" data-name="Слой 3" xmlns="http://www.w3.org/2000/svg" viewBox="0 0 128.417 15.292"><defs><style>.cls-1{fill:#036;}</style></defs><title>Монтажная область 1</title><rect class="cls-1" x="33.177" y="0.146" width="6.958" height="15" rx="1.635" ry="1.635"/><rect class="cls-1" x="11.208" y="0.083" width="6.958" height="15" rx="1.635" ry="1.635"/><rect class="cls-1" x="22.24" y="0.146" width="6.958" height="15" rx="1.635" ry="1.635"/><rect class="cls-1" x="44.25" y="0.115" width="6.958" height="15" rx="1.635" ry="1.635"/><rect class="cls-1" x="0.24" y="0.115" width="6.958" height="15" rx="1.635" ry="1.635"/><rect class="cls-1" x="88.135" y="0.063" width="6.958" height="15" rx="1.635" ry="1.635"/><rect class="cls-1" x="66.167" width="6.958" height="15" rx="1.635" ry="1.635"/><rect class="cls-1" x="77.198" y="0.063" width="6.958" height="15" rx="1.635" ry="1.635"/><rect class="cls-1" x="99.208" y="0.031" width="6.958" height="15" rx="1.635" ry="1.635"/><rect class="cls-1" x="55.198" y="0.031" width="6.958" height="15" rx="1.635" ry="1.635"/><rect class="cls-1" x="110.177" y="0.13" width="6.958" height="15" rx="1.635" ry="1.635"/><rect class="cls-1" x="121.25" y="0.099" width="6.958" height="15" rx="1.635" ry="1.635"/></svg>