<svg id="Слой_1" data-name="Слой 1" xmlns="http://www.w3.org/2000/svg" viewBox="0 0 168.04004 44.33789"><defs><style>.cls-1{fill:#fff;}.cls-2{fill:#fde428;}</style></defs><title>logo</title><path class="cls-1" d="M14.59277,45.59766a4.01783,4.01783,0,0,1-1.57519-1.48926,4.28138,4.28138,0,0,1,0-4.2666,4.01078,4.01078,0,0,1,1.57519-1.48926,4.98774,4.98774,0,0,1,4.51465,0,4.10617,4.10617,0,0,1,0,7.24512,4.98774,4.98774,0,0,1-4.51465,0Zm3.54786-1.375a2.34277,2.34277,0,0,0,.90332-.91407,2.88336,2.88336,0,0,0,0-2.668,2.35575,2.35575,0,0,0-.90332-.91407,2.69044,2.69044,0,0,0-2.5752,0,2.35568,2.35568,0,0,0-.90332.91407,2.88328,2.88328,0,0,0,0,2.668,2.3427,2.3427,0,0,0,.90332.91407,2.69044,2.69044,0,0,0,2.5752,0Z" transform="translate(-7.42773 -1.7998)"/><path class="cls-1" d="M37.36816,37.9502,34.73535,46h-2.001l-1.77149-5.45117L29.13477,46H27.14551L24.5,37.9502h1.93164L28.249,43.60742l1.89746-5.65722h1.72461l1.84082,5.7041,1.874-5.7041Z" transform="translate(-7.42773 -1.7998)"/><path class="cls-1" d="M48.59375,37.9502V46H47.06348l-4.0127-4.8877V46H41.21V37.9502h1.541l4.002,4.88769V37.9502Z" transform="translate(-7.42773 -1.7998)"/><path class="cls-1" d="M63.23242,43.14844V46H61.36914V43.125l-3.11621-5.1748h1.97852l2.15039,3.57617,2.15039-3.57617h1.82812Z" transform="translate(-7.42773 -1.7998)"/><path class="cls-1" d="M71.24121,45.59766A4.01776,4.01776,0,0,1,69.666,44.1084a4.28138,4.28138,0,0,1,0-4.2666,4.01071,4.01071,0,0,1,1.57519-1.48926,4.98774,4.98774,0,0,1,4.51465,0,4.10618,4.10618,0,0,1,0,7.24512,4.98774,4.98774,0,0,1-4.51465,0Zm3.54785-1.375a2.3427,2.3427,0,0,0,.90332-.91407,2.88328,2.88328,0,0,0,0-2.668,2.35568,2.35568,0,0,0-.90332-.91407,2.69042,2.69042,0,0,0-2.57519,0,2.35568,2.35568,0,0,0-.90332.91407,2.88328,2.88328,0,0,0,0,2.668,2.3427,2.3427,0,0,0,.90332.91407,2.69042,2.69042,0,0,0,2.57519,0Z" transform="translate(-7.42773 -1.7998)"/><path class="cls-1" d="M83.00684,45.18359a3.67338,3.67338,0,0,1-.96-2.72558V37.9502h1.8623v4.43847q0,2.16212,1.79492,2.16211a1.68132,1.68132,0,0,0,1.334-.52344,2.44142,2.44142,0,0,0,.46-1.63867V37.9502h1.83984V42.458a3.80809,3.80809,0,0,1-6.33105,2.72558Z" transform="translate(-7.42773 -1.7998)"/><path class="cls-1" d="M99.1123,46l-1.55273-2.24219H95.8457V46H93.98242V37.9502h3.48535a4.45634,4.45634,0,0,1,1.85645.35644,2.76282,2.76282,0,0,1,1.21387,1.01172,2.79409,2.79409,0,0,1,.4248,1.55273,2.61931,2.61931,0,0,1-1.65527,2.541L101.11328,46Zm-.47167-6.16992a1.95922,1.95922,0,0,0-1.27637-.36231H95.8457v2.80567h1.51856a1.93715,1.93715,0,0,0,1.27637-.36719,1.45258,1.45258,0,0,0,0-2.07617Z" transform="translate(-7.42773 -1.7998)"/><path class="cls-1" d="M112.92969,45.60352a4.00176,4.00176,0,0,1-1.56446-1.48438,4.32363,4.32363,0,0,1,0-4.28906,3.99243,3.99243,0,0,1,1.56446-1.4834,4.64591,4.64591,0,0,1,2.23633-.53418,4.69569,4.69569,0,0,1,1.8916.36719,3.79468,3.79468,0,0,1,1.4209,1.05859l-1.19629,1.10352a2.57185,2.57185,0,0,0-2.02442-.94336,2.68745,2.68745,0,0,0-1.334.32812,2.33709,2.33709,0,0,0-.91406.91407,2.88328,2.88328,0,0,0,0,2.668,2.32442,2.32442,0,0,0,.91406.91407,2.68745,2.68745,0,0,0,1.334.32812,2.56126,2.56126,0,0,0,2.02442-.9541l1.19629,1.10449a3.7276,3.7276,0,0,1-1.42676,1.06836,4.71783,4.71783,0,0,1-1.89746.36817A4.62146,4.62146,0,0,1,112.92969,45.60352Z" transform="translate(-7.42773 -1.7998)"/><path class="cls-1" d="M124.00293,45.59766a4.01785,4.01785,0,0,1-1.5752-1.48926,4.28144,4.28144,0,0,1,0-4.2666,4.01081,4.01081,0,0,1,1.5752-1.48926,4.98774,4.98774,0,0,1,4.51465,0,4.10618,4.10618,0,0,1,0,7.24512,4.98774,4.98774,0,0,1-4.51465,0Zm3.54785-1.375a2.3427,2.3427,0,0,0,.90332-.91407,2.88328,2.88328,0,0,0,0-2.668,2.35568,2.35568,0,0,0-.90332-.91407,2.69042,2.69042,0,0,0-2.57519,0,2.35568,2.35568,0,0,0-.90332.91407,2.88328,2.88328,0,0,0,0,2.668,2.3427,2.3427,0,0,0,.90332.91407,2.69042,2.69042,0,0,0,2.57519,0Z" transform="translate(-7.42773 -1.7998)"/><path class="cls-1" d="M135.76758,45.18359a3.67338,3.67338,0,0,1-.96-2.72558V37.9502h1.8623v4.43847q0,2.16212,1.79492,2.16211a1.6813,1.6813,0,0,0,1.334-.52344,2.44142,2.44142,0,0,0,.46-1.63867V37.9502h1.83984V42.458a3.80809,3.80809,0,0,1-6.33105,2.72558Z" transform="translate(-7.42773 -1.7998)"/><path class="cls-1" d="M151.874,46l-1.55273-2.24219h-1.71387V46h-1.86328V37.9502h3.48535a4.45634,4.45634,0,0,1,1.85645.35644,2.76273,2.76273,0,0,1,1.21386,1.01172,2.794,2.794,0,0,1,.42481,1.55273,2.61931,2.61931,0,0,1-1.65527,2.541L153.875,46Zm-.47168-6.16992a1.95917,1.95917,0,0,0-1.27636-.36231h-1.51856v2.80567H150.126a1.9371,1.9371,0,0,0,1.27636-.36719,1.45256,1.45256,0,0,0,0-2.07617Z" transform="translate(-7.42773 -1.7998)"/><path class="cls-1" d="M158.80273,45.87891a4.32274,4.32274,0,0,1-1.43164-.67188l.63184-1.40332a4.3117,4.3117,0,0,0,1.23047.60938,4.62617,4.62617,0,0,0,1.42676.22949,2.279,2.279,0,0,0,1.17285-.23535.71206.71206,0,0,0,.3789-.627.60033.60033,0,0,0-.22363-.47754,1.72239,1.72239,0,0,0-.57519-.30468c-.23438-.07617-.54981-.16016-.94922-.252a13.2669,13.2669,0,0,1-1.50586-.4375,2.44366,2.44366,0,0,1-1.00684-.70117,1.89935,1.89935,0,0,1-.41894-1.28906,2.23728,2.23728,0,0,1,.3789-1.26953,2.55423,2.55423,0,0,1,1.14453-.90332,4.68167,4.68167,0,0,1,1.86914-.333,6.16731,6.16731,0,0,1,1.50586.18359,4.45576,4.45576,0,0,1,1.28809.5293l-.5752,1.41406a4.48509,4.48509,0,0,0-2.23046-.63281,2.08977,2.08977,0,0,0-1.15625.25391.77017.77017,0,0,0-.37305.666.65142.65142,0,0,0,.43066.61524,6.65283,6.65283,0,0,0,1.31641.39648,13.29375,13.29375,0,0,1,1.50684.4375,2.5035,2.5035,0,0,1,1.00683.69043,1.85137,1.85137,0,0,1,.41895,1.27637,2.20019,2.20019,0,0,1-.38477,1.25976,2.59549,2.59549,0,0,1-1.15625.90235,4.71991,4.71991,0,0,1-1.874.333A6.56926,6.56926,0,0,1,158.80273,45.87891Z" transform="translate(-7.42773 -1.7998)"/><path class="cls-1" d="M174.37891,44.50488V46h-6.2334V37.9502h6.084v1.49511h-4.23242v1.748h3.73828v1.44922h-3.73828v1.8623Z" transform="translate(-7.42773 -1.7998)"/><path class="cls-2" d="M15.30273,31.59863a14.5957,14.5957,0,0,1-5.77539-5.43847,14.9981,14.9981,0,0,1-2.09961-7.89649,14.99876,14.99876,0,0,1,2.09961-7.896,14.60381,14.60381,0,0,1,5.77539-5.439,17.399,17.399,0,0,1,8.29493-1.95264,17.80928,17.80928,0,0,1,7.26562,1.42774A13.988,13.988,0,0,1,36.23975,8.52l-5.292,4.78809a8.70765,8.70765,0,0,0-6.93017-3.44434,8.55523,8.55523,0,0,0-4.26319,1.05029A7.28847,7.28847,0,0,0,16.85645,13.875a9.1082,9.1082,0,0,0-1.02881,4.38867,9.10477,9.10477,0,0,0,1.02881,4.38916,7.28249,7.28249,0,0,0,2.89794,2.96094,8.545,8.545,0,0,0,4.26319,1.05029,8.70624,8.70624,0,0,0,6.93017-3.44433l5.292,4.78808A13.98318,13.98318,0,0,1,30.86328,32.124a17.81719,17.81719,0,0,1-7.26562,1.42774A17.3992,17.3992,0,0,1,15.30273,31.59863Z" transform="translate(-7.42773 -1.7998)"/><path class="cls-2" d="M42.41309,31.83008a11.25221,11.25221,0,0,1-6.2583-10.29A11.21768,11.21768,0,0,1,42.39209,11.313a15.46419,15.46419,0,0,1,13.251,0,11.17633,11.17633,0,0,1,4.57812,4.15771A11.365,11.365,0,0,1,61.85889,21.54a11.46815,11.46815,0,0,1-1.6377,6.08984,11.2696,11.2696,0,0,1-4.57812,4.2002,15.22867,15.22867,0,0,1-13.23,0Zm10.03808-6.2793A5.6724,5.6724,0,0,0,53.79492,21.54a5.53424,5.53424,0,0,0-1.34375-3.94824,4.8679,4.8679,0,0,0-6.88818,0A5.5299,5.5299,0,0,0,44.21924,21.54,5.66794,5.66794,0,0,0,45.563,25.55078a4.81707,4.81707,0,0,0,6.88818,0Z" transform="translate(-7.42773 -1.7998)"/><path class="cls-2" d="M88.23438,10.19971V32.96387H80.63232V30.52832a8.17482,8.17482,0,0,1-3.02392,2.09961,9.87567,9.87567,0,0,1-3.73779.71387,9.54819,9.54819,0,0,1-7.03516-2.60352q-2.62574-2.60449-2.625-7.8125V10.19971h7.98V21.624a5.86048,5.86048,0,0,0,.96582,3.7378,3.42893,3.42893,0,0,0,2.814,1.17627,3.97453,3.97453,0,0,0,3.08741-1.32325,5.88958,5.88958,0,0,0,1.19677-4.05273V10.19971Z" transform="translate(-7.42773 -1.7998)"/><path class="cls-2" d="M113.749,12.3418q2.58252,2.52026,2.583,7.60205v13.02h-7.97949V21.24609q0-4.66258-3.73828-4.66211a4.269,4.269,0,0,0-3.29688,1.34375A5.76994,5.76994,0,0,0,100.07813,21.96V32.96387H92.09766V10.19971H99.7002v2.478a9.04457,9.04457,0,0,1,3.19238-2.12109,10.82176,10.82176,0,0,1,4.03125-.73486A9.35611,9.35611,0,0,1,113.749,12.3418Z" transform="translate(-7.42773 -1.7998)"/><path class="cls-2" d="M122.71582,32.69043a14.856,14.856,0,0,1-4.45215-1.7002l2.39453-5.46044a13.47682,13.47682,0,0,0,3.69532,1.53271,16.5318,16.5318,0,0,0,4.24218.56738,6.782,6.782,0,0,0,2.751-.39941,1.25089,1.25089,0,0,0,.81934-1.1543q0-.75659-.98731-1.07129a20.48368,20.48368,0,0,0-3.12891-.60888,30.85594,30.85594,0,0,1-4.64062-.88233,7.15667,7.15667,0,0,1-3.29785-2.01562,5.76551,5.76551,0,0,1-1.38574-4.11621,6.21966,6.21966,0,0,1,1.30175-3.88477,8.63162,8.63162,0,0,1,3.80176-2.688,16.285,16.285,0,0,1,5.98438-.9873,24.19482,24.19482,0,0,1,4.91406.5039,14.1437,14.1437,0,0,1,4.07422,1.42823l-2.39356,5.418a13.27855,13.27855,0,0,0-6.55273-1.68018,6.52038,6.52038,0,0,0-2.77149.44141,1.31463,1.31463,0,0,0-.88183,1.15478q0,.79834.96582,1.11279a22.1238,22.1238,0,0,0,3.19141.65137,35.29749,35.29749,0,0,1,4.6621.96582,7.12353,7.12353,0,0,1,3.2129,1.99512,5.6778,5.6778,0,0,1,1.36523,4.05273,6.16463,6.16463,0,0,1-1.30176,3.84326,8.48292,8.48292,0,0,1-3.84277,2.667,17.23833,17.23833,0,0,1-6.11133.96582A24.49859,24.49859,0,0,1,122.71582,32.69043Z" transform="translate(-7.42773 -1.7998)"/><path class="cls-2" d="M164.92578,23.59766H148.37793a4.62711,4.62711,0,0,0,1.95312,2.709,6.51259,6.51259,0,0,0,3.63282.94531,7.852,7.852,0,0,0,2.835-.46191,8.36167,8.36167,0,0,0,2.415-1.51221l4.20019,4.36768q-3.31934,3.69726-9.70215,3.69629a15.493,15.493,0,0,1-7.01464-1.51172,11.13609,11.13609,0,0,1-6.3418-10.29A11.23687,11.23687,0,0,1,146.44531,11.334a14.33106,14.33106,0,0,1,12.60059-.105,10.7096,10.7096,0,0,1,4.38867,4.07373,11.95979,11.95979,0,0,1,1.61719,6.32129Q165.05176,21.70826,164.92578,23.59766ZM149.82715,16.542a4.73521,4.73521,0,0,0-1.5752,2.856h9.32325a4.74394,4.74394,0,0,0-1.57422-2.856,5.06153,5.06153,0,0,0-6.17383,0Z" transform="translate(-7.42773 -1.7998)"/><path class="cls-2" d="M167.4873,1.7998h7.98047V32.96387H167.4873Z" transform="translate(-7.42773 -1.7998)"/></svg>